HIERARCHY
ROOT hip
{
	OFFSET	0.00  0.00  0.00 
	CHANNELS 6 Xposition Yposition Zposition Xrotation Zrotation Yrotation
	JOINT abdomen
	{
		OFFSET	0.000000 3.402643 0.000000
		CHANNELS 3 Xrotation Zrotation Yrotation
		JOINT chest
		{
			OFFSET	0.000000 8.438564 -0.680529
			CHANNELS 3 Xrotation Zrotation Yrotation
			JOINT neck
			{
				OFFSET	0.000000 10.207942 -0.272212
				CHANNELS 3 Xrotation Zrotation Yrotation
				JOINT head
				{
					OFFSET	0.000000 3.130431 0.000000
					CHANNELS 3 Xrotation Zrotation Yrotation
					End Site
					{
						OFFSET 0.000000 3.130435 0.000000
					}
				}
			}
			JOINT lCollar
			{
				OFFSET	3.402647 6.669187 -0.816635
				CHANNELS 3 Yrotation Zrotation Xrotation
				JOINT lShldr
				{
					OFFSET	3.266541 0.000000 0.000000
					CHANNELS 3 Zrotation Yrotation Xrotation
					JOINT lForeArm
					{
						OFFSET	10.071835 0.000000 0.000000
						CHANNELS 3 Yrotation Zrotation Xrotation
						JOINT lHand
						{
							OFFSET	8.438563 0.000000 0.000000
							CHANNELS 3 Zrotation Yrotation Xrotation
							End Site
							{
								OFFSET 4.083176 0.000000 0.000000
							}
						}
					}
				}
			}
			JOINT rCollar
			{
				OFFSET	-3.538753 6.669187 -0.816635
				CHANNELS 3 Yrotation Zrotation Xrotation
				JOINT rShldr
				{
					OFFSET	-3.130435 0.000000 0.000000
					CHANNELS 3 Zrotation Yrotation Xrotation
					JOINT rForeArm
					{
						OFFSET	-10.207940 0.000000 0.000000
						CHANNELS 3 Yrotation Zrotation Xrotation
						JOINT rHand
						{
							OFFSET	-8.302459 0.000000 0.000000
							CHANNELS 3 Zrotation Yrotation Xrotation
							End Site
							{
								OFFSET -4.083176 0.000000 0.000000
							}
						}
					}
				}
			}
		}
	}
	JOINT lThigh
	{
		OFFSET	5.308129 -1.633274 1.361059
		CHANNELS 3 Xrotation Zrotation Yrotation
		JOINT lShin
		{
			OFFSET	-2.041588 -20.007561 0.000000
			CHANNELS 3 Xrotation Zrotation Yrotation
			JOINT lFoot
			{
				OFFSET	0.000000 -19.190928 -1.224953
				CHANNELS 3 Xrotation Yrotation Zrotation
				End Site
				{
					OFFSET 0.000000 -2.449905 4.627600
				}
			}
		}
	}
	JOINT rThigh
	{
		OFFSET	-5.308129 -1.633274 1.361059
		CHANNELS 3 Xrotation Zrotation Yrotation
		JOINT rShin
		{
			OFFSET	2.041588 -20.007561 0.000000
			CHANNELS 3 Xrotation Zrotation Yrotation
			JOINT rFoot
			{
				OFFSET	0.000000 -19.190928 -1.224953
				CHANNELS 3 Xrotation Yrotation Zrotation
				End Site
				{
					OFFSET 0.000000 -2.449905 4.627600
				}
			}
		}
	}
}
MOTION
Frames:     17
Frame Time: 0.033333
0.000000 43.729870 0.000000 0.000000 0.000000 0.000000 -0.020241 -1.277050 -0.234911 -0.138059 -2.836020 -0.302997 -0.846298 4.058160 -0.238277 13.567882 -1.363086 -0.459571 14.687500 20.821100 -7.949340 -106.133003 0.000000 0.000000 0.000000 0.000000 0.000000 0.000000 0.000000 0.000000 36.513744 -5.305315 -6.066995 73.170349 7.347098 -0.998130 145.167725 -33.927998 113.255623 3.782855 -21.428133 -0.969494 0.000000 0.000000 0.000000 0.009766 0.000000 0.000000 -0.097656 0.000000 0.000000 0.000000 -0.019531 0.000000 0.009766 0.019531 -0.009766 0.166016 0.009766 0.000000 
0.000000 43.729870 0.000000 0.000000 0.000000 0.000000 -0.019144 -1.013392 -0.247874 -0.117112 -2.122855 -0.294178 -0.857331 3.707511 -0.242904 13.695436 -4.476107 -0.491179 14.687500 20.821100 -7.949340 -106.133003 0.000000 0.000000 0.000000 0.000000 0.000000 0.000000 0.000000 0.000000 37.125267 -5.791952 -5.992876 72.107742 6.977069 -0.940864 143.252335 -28.426899 112.461914 3.078375 -14.159055 -0.737312 0.000000 0.000000 0.000000 0.009766 0.000000 0.000000 -0.097656 0.000000 0.000000 0.000000 -0.019531 0.000000 0.009766 0.019531 -0.009766 0.166016 0.009766 0.000000 
0.000000 43.729870 0.000000 0.000000 0.000000 0.000000 -0.016569 -0.697954 -0.266357 -0.090468 -1.301844 -0.287357 -0.868891 3.218081 -0.247214 13.848269 -8.029449 -0.528487 14.687500 20.821100 -7.949340 -106.133003 0.000000 0.000000 0.000000 0.000000 0.000000 0.000000 0.000000 0.000000 37.869720 -6.410743 -5.903327 70.913391 6.530316 -0.873871 140.985168 -21.833824 111.509781 2.418421 -5.013398 -0.425790 0.000000 0.000000 0.000000 0.009766 0.000000 0.000000 -0.097656 0.000000 0.000000 0.000000 -0.019531 0.000000 0.009766 0.019531 -0.009766 0.166016 0.009766 0.000000 
0.000000 43.729870 0.000000 0.000000 0.000000 0.000000 -0.013210 -0.418762 -0.283646 -0.065313 -0.627315 -0.283471 -0.879398 2.734648 -0.250858 14.002489 -11.165396 -0.566948 14.687500 20.821100 -7.949340 -106.133003 0.000000 0.000000 0.000000 0.000000 0.000000 0.000000 0.000000 0.000000 38.530880 -6.973323 -5.824137 70.012611 6.139959 -0.815718 139.003616 -16.029753 110.671173 1.929946 3.255367 -0.134866 0.000000 0.000000 0.000000 0.009766 0.000000 0.000000 -0.097656 0.000000 0.000000 0.000000 -0.019531 0.000000 0.009766 0.019531 -0.009766 0.166016 0.009766 0.000000 
0.000000 43.729870 0.000000 0.000000 0.000000 0.000000 -0.009762 -0.263843 -0.293028 -0.048831 -0.353599 -0.283459 -0.887276 2.401990 -0.253488 14.134200 -13.026200 -0.602011 14.687500 20.821100 -7.949340 -106.133003 0.000000 0.000000 0.000000 0.000000 0.000000 0.000000 0.000000 0.000000 38.892502 -7.291320 -5.781090 69.830704 5.939120 -0.784972 137.945007 -12.895700 110.218002 1.739910 7.893710 0.035522 0.000000 0.000000 0.000000 0.009766 0.000000 0.000000 -0.097656 0.000000 0.000000 0.000000 -0.019531 0.000000 0.009766 0.019531 -0.009766 0.166016 0.009766 0.000000 
0.000000 43.729870 0.000000 0.000000 0.000000 0.000000 -0.006792 -0.296361 -0.289617 -0.046284 -0.659803 -0.287849 -0.891378 2.327371 -0.254869 14.225060 -12.997483 -0.630072 14.687500 20.821100 -7.949340 -106.133003 0.000000 0.000000 0.000000 0.000000 0.000000 0.000000 0.000000 0.000000 38.799255 -7.228522 -5.792686 70.662773 6.023013 -0.794881 138.264999 -13.779431 110.345139 1.932831 6.913540 0.012606 0.000000 0.000000 0.000000 0.009766 0.000000 0.000000 -0.097656 0.000000 0.000000 0.000000 -0.019531 0.000000 0.009766 0.019531 -0.009766 0.166016 0.009766 0.000000 
0.000000 43.729870 0.000000 0.000000 0.000000 0.000000 -0.004375 -0.480028 -0.275843 -0.055229 -1.424150 -0.295518 -0.892293 2.468001 -0.255215 14.278940 -11.438264 -0.651296 14.687500 20.821100 -7.949340 -106.133003 0.000000 0.000000 0.000000 0.000000 0.000000 0.000000 0.000000 0.000000 38.339386 -6.857343 -5.848290 72.283020 6.335222 -0.837407 139.692612 -17.895765 110.939240 2.423470 1.388404 -0.167715 0.000000 0.000000 0.000000 0.009766 0.000000 0.000000 -0.097656 0.000000 0.000000 0.000000 -0.019531 0.000000 0.009766 0.019531 -0.009766 0.166016 0.009766 0.000000 
0.000000 43.729870 0.000000 0.000000 0.000000 0.000000 -0.002461 -0.753690 -0.255964 -0.071297 -2.449637 -0.304935 -0.891042 2.743573 -0.254856 14.305259 -8.950908 -0.666794 14.687500 20.821100 -7.949340 -106.133003 0.000000 0.000000 0.000000 0.000000 0.000000 0.000000 0.000000 0.000000 37.662029 -6.302350 -5.929976 74.335388 6.781425 -0.899191 141.775116 -23.926279 111.809860 3.084147 -6.842731 -0.442369 0.000000 0.000000 0.000000 0.009766 0.000000 0.000000 -0.097656 0.000000 0.000000 0.000000 -0.019531 0.000000 0.009766 0.019531 -0.009766 0.166016 0.009766 0.000000 
0.000000 43.729870 0.000000 0.000000 0.000000 0.000000 -0.000997 -1.056194 -0.234240 -0.090120 -3.539259 -0.314564 -0.888645 3.073781 -0.254119 14.313437 -6.137790 -0.677674 14.687500 20.821100 -7.949340 -106.133003 0.000000 0.000000 0.000000 0.000000 0.000000 0.000000 0.000000 0.000000 36.916321 -5.688114 -6.019821 76.463852 7.267294 -0.966875 144.059799 -30.552521 112.766579 3.787183 -15.940874 -0.748287 0.000000 0.000000 0.000000 0.009766 0.000000 0.000000 -0.097656 0.000000 0.000000 0.000000 -0.019531 0.000000 0.009766 0.019531 -0.009766 0.166016 0.009766 0.000000 
0.000000 43.729870 0.000000 0.000000 0.000000 0.000000 0.000066 -1.326390 -0.214930 -0.107331 -4.496020 -0.322873 -0.886123 3.378320 -0.253333 14.312900 -3.601270 -0.685047 14.687500 20.821100 -7.949340 -106.133003 0.000000 0.000000 0.000000 0.000000 0.000000 0.000000 0.000000 0.000000 36.251400 -5.139200 -6.099900 78.312401 7.698510 -1.027100 146.093994 -36.456100 113.619003 4.404900 -24.067101 -1.022400 0.000000 0.000000 0.000000 0.009766 0.000000 0.000000 -0.097656 0.000000 0.000000 0.000000 -0.019531 0.000000 0.009766 0.019531 -0.009766 0.166016 0.009766 0.000000 
0.000000 43.729870 0.000000 0.000000 0.000000 0.000000 0.000779 -1.515652 -0.201415 -0.119438 -5.163995 -0.328656 -0.884305 3.592917 -0.252764 14.311478 -1.821354 -0.689897 14.687500 20.821100 -7.949340 -106.133003 0.000000 0.000000 0.000000 0.000000 0.000000 0.000000 0.000000 0.000000 35.785801 -4.754670 -6.155969 79.600227 8.000193 -1.069255 147.518005 -40.589340 114.215820 4.836223 -29.759188 -1.214522 0.000000 0.000000 0.000000 0.009766 0.000000 0.000000 -0.097656 0.000000 0.000000 0.000000 -0.019531 0.000000 0.009766 0.019531 -0.009766 0.166016 0.009766 0.000000 
0.000000 43.729870 0.000000 0.000000 0.000000 0.000000 0.001195 -1.625471 -0.193571 -0.126461 -5.551585 -0.332012 -0.883249 3.717436 -0.252431 14.310653 -0.788566 -0.692708 14.687500 20.821100 -7.949340 -106.133003 0.000000 0.000000 0.000000 0.000000 0.000000 0.000000 0.000000 0.000000 35.515636 -4.531548 -6.188503 80.347481 8.175242 -1.093715 148.344299 -42.987640 114.562119 5.086497 -33.062000 -1.326000 0.000000 0.000000 0.000000 0.009766 0.000000 0.000000 -0.097656 0.000000 0.000000 0.000000 -0.019531 0.000000 0.009766 0.019531 -0.009766 0.166016 0.009766 0.000000 
0.000000 43.729870 0.000000 0.000000 0.000000 0.000000 0.001366 -1.669867 -0.190398 -0.129298 -5.708269 -0.333372 -0.882820 3.767771 -0.252294 14.310321 -0.371059 -0.693840 14.687500 20.821100 -7.949340 -106.133003 0.000000 0.000000 0.000000 0.000000 0.000000 0.000000 0.000000 0.000000 35.406422 -4.441349 -6.201655 80.649559 8.246006 -1.103603 148.678360 -43.957165 114.702118 5.187671 -34.397179 -1.371065 0.000000 0.000000 0.000000 0.009766 0.000000 0.000000 -0.097656 0.000000 0.000000 0.000000 -0.019531 0.000000 0.009766 0.019531 -0.009766 0.166016 0.009766 0.000000 
0.000000 43.729870 0.000000 0.000000 0.000000 0.000000 0.001345 -1.662859 -0.190894 -0.128845 -5.683527 -0.333161 -0.882884 3.759821 -0.252311 14.310374 -0.436986 -0.693654 14.687500 20.821100 -7.949340 -106.133003 0.000000 0.000000 0.000000 0.000000 0.000000 0.000000 0.000000 0.000000 35.423664 -4.455591 -6.199578 80.601852 8.234831 -1.102042 148.625656 -43.804081 114.680016 5.171696 -34.186363 -1.363950 0.000000 0.000000 0.000000 0.009766 0.000000 0.000000 -0.097656 0.000000 0.000000 0.000000 -0.019531 0.000000 0.009766 0.019531 -0.009766 0.166016 0.009766 0.000000 
0.000000 43.729870 0.000000 0.000000 0.000000 0.000000 0.001182 -1.618466 -0.194060 -0.126000 -5.526838 -0.331809 -0.883307 3.709480 -0.252439 14.310707 -0.854502 -0.692509 14.687500 20.821100 -7.949340 -106.133003 0.000000 0.000000 0.000000 0.000000 0.000000 0.000000 0.000000 0.000000 35.532879 -4.545789 -6.186426 80.299767 8.164063 -1.092154 148.291641 -42.834549 114.540016 5.070521 -32.851185 -1.318884 0.000000 0.000000 0.000000 0.009766 0.000000 0.000000 -0.097656 0.000000 0.000000 0.000000 -0.019531 0.000000 0.009766 0.019531 -0.009766 0.166016 0.009766 0.000000 
0.000000 43.729870 0.000000 0.000000 0.000000 0.000000 0.000932 -1.550707 -0.198894 -0.121661 -5.287683 -0.329743 -0.883954 3.632646 -0.252638 14.311214 -1.491760 -0.690766 14.687500 20.821100 -7.949340 -106.133003 0.000000 0.000000 0.000000 0.000000 0.000000 0.000000 0.000000 0.000000 35.699574 -4.683461 -6.166352 79.838692 8.056052 -1.077061 147.781799 -41.354744 114.326332 4.916097 -30.813282 -1.250100 0.000000 0.000000 0.000000 0.009766 0.000000 0.000000 -0.097656 0.000000 0.000000 0.000000 -0.019531 0.000000 0.009766 0.019531 -0.009766 0.166016 0.009766 0.000000 
0.000000 43.729870 0.000000 0.000000 0.000000 0.000000 0.000647 -1.473602 -0.204395 -0.116724 -5.015542 -0.327391 -0.884692 3.545214 -0.252865 14.311793 -2.216915 -0.688783 14.687500 20.821100 -7.949340 -106.133003 0.000000 0.000000 0.000000 0.000000 0.000000 0.000000 0.000000 0.000000 35.889267 -4.840122 -6.143509 79.314026 7.933144 -1.059887 147.201630 -39.670834 114.083191 4.740373 -28.494286 -1.171828 0.000000 0.000000 0.000000 0.009766 0.000000 0.000000 -0.097656 0.000000 0.000000 0.000000 -0.019531 0.000000 0.009766 0.019531 -0.009766 0.166016 0.009766 0.000000 
